<svg width="720" height="950" viewBox="0 0 720 950" fill="none" xmlns="http://www.w3.org/2000/svg">
<g clip-path="url(#clip0_854_27360)">
<rect width="720" height="950" fill="#F9F9F9"/>
<circle cx="94.8642" cy="73.8642" r="119.864" fill="url(#paint0_linear_854_27360)"/>
<path d="M214.728 73.8642C214.728 99.1771 206.715 123.84 191.836 144.319C176.958 164.797 155.978 180.04 131.904 187.862C107.83 195.684 81.8981 195.684 57.8241 187.862C33.7502 180.04 12.7705 164.797 -2.10798 144.319L94.8642 73.8642H214.728Z" fill="url(#paint1_linear_854_27360)"/>
<path d="M214.728 73.8642C214.728 99.1771 206.715 123.84 191.836 144.319L94.8642 73.8642H214.728Z" fill="url(#paint2_linear_854_27360)"/>
<rect x="449" y="-23.7012" width="228.1" height="275.509" rx="26.8353" fill="#EFEFEF"/>
<rect x="474.941" y="1.34375" width="62.6156" height="62.6156" rx="17.8902" fill="white"/>
<rect x="474.941" y="81.8506" width="62.6156" height="62.6156" rx="17.8902" fill="white"/>
<rect x="474.941" y="162.356" width="62.6156" height="62.6156" rx="17.8902" fill="white"/>
<rect x="550.08" y="6.71289" width="100.185" height="12.5231" rx="3.57804" fill="#F7F7F7"/>
<rect x="550.08" y="87.2168" width="100.185" height="12.5231" rx="3.57804" fill="#F7F7F7"/>
<rect x="550.08" y="167.723" width="100.185" height="12.5231" rx="3.57804" fill="#F7F7F7"/>
<rect x="550.08" y="26.3906" width="100.185" height="12.5231" rx="3.57804" fill="#F7F7F7"/>
<rect x="550.08" y="106.896" width="100.185" height="12.5231" rx="3.57804" fill="#F7F7F7"/>
<rect x="550.08" y="187.402" width="100.185" height="12.5231" rx="3.57804" fill="#F7F7F7"/>
<rect x="550.08" y="46.0703" width="61.7211" height="12.5231" rx="3.57804" fill="#F7F7F7"/>
<rect x="550.08" y="126.576" width="61.7211" height="12.5231" rx="3.57804" fill="#F7F7F7"/>
<rect x="550.08" y="207.082" width="61.7211" height="12.5231" rx="3.57804" fill="#F7F7F7"/>
<line x1="642.35" y1="337.645" x2="704.071" y2="399.366" stroke="#AFD2FC" stroke-width="17.8902"/>
<path d="M667.332 295.666C667.332 334.694 635.694 366.332 596.666 366.332C557.638 366.332 526 334.694 526 295.666C526 256.638 557.638 225 596.666 225C635.694 225 667.332 256.638 667.332 295.666Z" fill="url(#paint3_linear_854_27360)"/>
<path fill-rule="evenodd" clip-rule="evenodd" d="M596.666 348.442C625.814 348.442 649.442 324.814 649.442 295.666C649.442 266.519 625.814 242.89 596.666 242.89C567.519 242.89 543.89 266.519 543.89 295.666C543.89 324.814 567.519 348.442 596.666 348.442ZM596.666 366.332C635.694 366.332 667.332 334.694 667.332 295.666C667.332 256.638 635.694 225 596.666 225C557.638 225 526 256.638 526 295.666C526 334.694 557.638 366.332 596.666 366.332Z" fill="url(#paint4_linear_854_27360)"/>
<path d="M596.666 335.024C574.929 335.024 557.308 317.403 557.308 295.666" stroke="#AFD2FC" stroke-width="8.94509"/>
<path fill-rule="evenodd" clip-rule="evenodd" d="M718.319 437.893L644.969 364.544L670.27 339.243L743.62 412.593L718.319 437.893Z" fill="url(#paint5_linear_854_27360)"/>
<path fill-rule="evenodd" clip-rule="evenodd" d="M342.491 120.841C338.24 118.386 333.003 118.386 328.752 120.841L275.87 151.372C271.619 153.826 269 158.362 269 163.271V224.334C269 229.242 271.619 233.778 275.87 236.232L328.752 266.764C333.003 269.218 338.24 269.218 342.491 266.764L395.373 236.232C399.624 233.778 402.243 229.242 402.243 224.334V163.271C402.243 158.362 399.624 153.826 395.373 151.372L342.491 120.841ZM335.621 225.11C352.912 225.11 366.929 211.093 366.929 193.802C366.929 176.511 352.912 162.494 335.621 162.494C318.331 162.494 304.314 176.511 304.314 193.802C304.314 211.093 318.331 225.11 335.621 225.11Z" fill="url(#paint6_linear_854_27360)"/>
<rect x="222" y="547" width="427.575" height="275.509" rx="26.8353" fill="#EFEFEF"/>
<circle cx="256.886" cy="580.096" r="11.6286" fill="#EA4335"/>
<circle cx="289.088" cy="580.096" r="11.6286" fill="#F9AB00"/>
<circle cx="321.291" cy="580.096" r="11.6286" fill="#34A853"/>
<rect x="-134" y="377.185" width="568.013" height="113.603" rx="44.7255" fill="#EFEFEF"/>
<path d="M340.815 438.716C340.815 437.991 340.227 437.404 339.502 437.404C339.11 437.404 338.738 437.58 338.485 437.881C334.857 442.186 330.48 445.892 325.354 448.999C320.201 452.22 313.517 453.831 305.304 453.831C299.184 453.831 293.386 452.784 287.91 450.69C282.596 448.758 277.926 446.02 273.899 442.477C269.873 438.934 266.733 434.666 264.478 429.674C262.223 424.681 261.096 419.205 261.096 413.247C261.096 407.127 262.304 401.651 264.72 396.82C267.135 391.827 270.517 387.56 274.866 384.017C279.214 380.474 284.287 377.816 290.085 376.045C296.043 374.112 302.485 373.146 309.41 373.146C317.141 373.146 323.502 373.79 328.494 375.078C331.87 375.841 334.841 376.64 337.406 377.476C339.056 378.013 340.815 376.814 340.815 375.078C340.815 368.798 338.318 363.644 333.326 359.618C328.333 355.431 322.133 353.337 314.725 353.337C305.857 353.337 298.097 356.347 291.447 362.367C288.7 364.853 284.602 365.504 281.544 363.412L270.343 355.748C266.914 353.402 266.171 348.601 269.111 345.665C281.08 333.709 296.527 327.73 315.45 327.73C333.809 327.73 347.82 332.079 357.483 340.775C367.146 349.311 371.977 362.034 371.977 378.944V442.81C371.977 446.762 368.773 449.966 364.821 449.966H347.095C343.627 449.966 340.815 447.154 340.815 443.685V438.716ZM340.42 406.38C340.902 403.666 339.246 401.099 336.675 400.106C334.254 399.172 331.769 398.398 329.219 397.786C325.354 396.659 321.086 396.095 316.416 396.095C308.847 396.095 302.968 397.786 298.781 401.168C294.755 404.389 292.742 408.415 292.742 413.247C292.742 418.078 294.674 421.943 298.54 424.842C302.566 427.741 307.156 429.19 312.309 429.19C316.496 429.19 320.362 428.466 323.905 427.016C327.448 425.406 330.427 423.393 332.843 420.977C335.42 418.4 337.352 415.501 338.64 412.28C339.472 410.34 340.065 408.373 340.42 406.38Z" fill="url(#paint7_linear_854_27360)"/>
<path fill-rule="evenodd" clip-rule="evenodd" d="M159.079 277C156.098 277 153.429 278.848 152.38 281.639L92.7745 440.292C91.0166 444.971 94.4751 449.965 99.4734 449.965H120.034C123.086 449.965 125.803 448.029 126.798 445.143L137.723 413.478C138.719 410.593 141.436 408.656 144.488 408.656H200.96C204.012 408.656 206.729 410.593 207.725 413.478L218.65 445.143C219.645 448.029 222.362 449.965 225.415 449.965H245.975C250.973 449.965 254.432 444.971 252.674 440.292L193.068 281.639C192.019 278.848 189.351 277 186.369 277H159.079ZM193.722 373.918L179.971 335.46L176.237 324.294C175.159 321.069 170.613 321.025 169.473 324.229L165.477 335.46L151.726 373.918C150.893 376.249 152.621 378.701 155.096 378.701H190.353C192.827 378.701 194.555 376.249 193.722 373.918Z" fill="url(#paint8_linear_854_27360)"/>
<path fill-rule="evenodd" clip-rule="evenodd" d="M584.56 701.015C584.274 695.626 580.859 690.903 575.831 688.943L511.839 663.991C504.77 661.235 496.804 664.731 494.047 671.801L478.754 711.022C478.754 711.022 478.754 711.022 478.754 711.022C478.754 711.022 478.754 711.022 478.754 711.022L438.991 813C436.235 820.07 439.731 828.036 446.801 830.792L630.938 902.59C638.008 905.347 645.974 901.85 648.73 894.78L693.805 779.18C696.561 772.11 693.065 764.145 685.995 761.388L593.948 725.497C588.92 723.537 585.505 718.814 585.219 713.425L584.56 701.015Z" fill="url(#paint9_linear_854_27360)"/>
<path d="M-19 735.725C-19 726.845 -11.8018 719.647 -2.92231 719.647H132.532L176.344 765.066V951.166C176.344 960.045 169.146 967.243 160.266 967.243H-2.92231C-11.8018 967.243 -19 960.045 -19 951.166V735.725Z" fill="url(#paint10_linear_854_27360)"/>
<path d="M124.895 725.824C124.895 720.053 131.908 717.202 135.934 721.337L154.639 740.548L174.869 761.843C178.761 765.939 175.857 772.703 170.206 772.703H131.326C127.774 772.703 124.895 769.824 124.895 766.272V725.824Z" fill="url(#paint11_linear_854_27360)"/>
<rect width="731" height="963" fill="#F7F7F7" fill-opacity="0.15"/>
</g>
<defs>
<linearGradient id="paint0_linear_854_27360" x1="94.8642" y1="-46" x2="94.8642" y2="193.728" gradientUnits="userSpaceOnUse">
<stop stop-color="#AFD2FC"/>
<stop offset="1" stop-color="#4792EE"/>
</linearGradient>
<linearGradient id="paint1_linear_854_27360" x1="94.8642" y1="-46" x2="94.8642" y2="193.728" gradientUnits="userSpaceOnUse">
<stop stop-color="#368FF7"/>
<stop offset="1" stop-color="#205694"/>
</linearGradient>
<linearGradient id="paint2_linear_854_27360" x1="94.8642" y1="-46" x2="94.8642" y2="193.728" gradientUnits="userSpaceOnUse">
<stop stop-color="white"/>
<stop offset="1" stop-color="#AFD2FC"/>
</linearGradient>
<linearGradient id="paint3_linear_854_27360" x1="596.666" y1="225" x2="596.666" y2="366.332" gradientUnits="userSpaceOnUse">
<stop stop-color="#FFF5DF"/>
<stop offset="1" stop-color="white"/>
</linearGradient>
<linearGradient id="paint4_linear_854_27360" x1="596.666" y1="225" x2="596.666" y2="366.332" gradientUnits="userSpaceOnUse">
<stop stop-color="#FDE6B2"/>
<stop offset="1" stop-color="#FDDD99"/>
</linearGradient>
<linearGradient id="paint5_linear_854_27360" x1="706.945" y1="375.918" x2="681.644" y2="401.219" gradientUnits="userSpaceOnUse">
<stop stop-color="#FDE6B2"/>
<stop offset="1" stop-color="#FDDD99"/>
</linearGradient>
<linearGradient id="paint6_linear_854_27360" x1="335.621" y1="119" x2="335.621" y2="268.605" gradientUnits="userSpaceOnUse">
<stop stop-color="#C2E5CB"/>
<stop offset="1" stop-color="#5DB975"/>
</linearGradient>
<linearGradient id="paint7_linear_854_27360" x1="316.537" y1="327.73" x2="316.537" y2="453.831" gradientUnits="userSpaceOnUse">
<stop stop-color="#F9C7C2"/>
<stop offset="1" stop-color="#F28E86"/>
</linearGradient>
<linearGradient id="paint8_linear_854_27360" x1="172.724" y1="277" x2="172.724" y2="449.965" gradientUnits="userSpaceOnUse">
<stop stop-color="#F9C7C2"/>
<stop offset="1" stop-color="#F28E86"/>
</linearGradient>
<linearGradient id="paint9_linear_854_27360" x1="603.908" y1="699.89" x2="538.87" y2="866.691" gradientUnits="userSpaceOnUse">
<stop stop-color="#AFD2FC"/>
<stop offset="1" stop-color="#4792EE"/>
</linearGradient>
<linearGradient id="paint10_linear_854_27360" x1="78.6719" y1="719.647" x2="78.6719" y2="967.243" gradientUnits="userSpaceOnUse">
<stop stop-color="#FDE6B2"/>
<stop offset="1" stop-color="#FDDD99"/>
</linearGradient>
<linearGradient id="paint11_linear_854_27360" x1="155.041" y1="710" x2="155.041" y2="772.703" gradientUnits="userSpaceOnUse">
<stop stop-color="#FBBC04"/>
<stop offset="1" stop-color="#F9AB00"/>
</linearGradient>
<clipPath id="clip0_854_27360">
<rect width="720" height="950" fill="white"/>
</clipPath>
</defs>
</svg>
