<svg width="200" height="200" viewBox="0 0 200 200" fill="none" xmlns="http://www.w3.org/2000/svg">
<g clip-path="url(#clip0_854_27638)">
<rect width="200" height="200" rx="100" fill="url(#paint0_linear_854_27638)"/>
<circle cx="100" cy="76" r="32.5" fill="#FDE6B2"/>
<path fill-rule="evenodd" clip-rule="evenodd" d="M103.562 77.1244C108.828 77.1244 113.801 75.8746 118.202 73.6556C121.067 79.1213 125.439 83.6728 130.765 86.7583C131.93 83.4084 132.562 79.8097 132.562 76.0633C132.562 58.0796 117.984 43.501 100 43.501C89.0816 43.501 79.4182 48.8749 73.5106 57.122C78.4264 68.8702 90.0304 77.1244 103.562 77.1244Z" fill="#333333"/>
<path d="M161.5 170.696C161.5 187.555 133.966 200 100 200C66.0345 200 38.5 187.555 38.5 170.696C38.5 153.838 38.5 117.5 100 117.5C161.5 117.5 161.5 153.838 161.5 170.696Z" fill="url(#paint1_linear_854_27638)"/>
<path d="M167.426 90.9688C169.121 91.3284 170.392 92.7387 170.574 94.462L171.553 103.745C171.735 105.468 170.787 107.113 169.204 107.818L160.678 111.618C159.095 112.324 157.238 111.93 156.078 110.642L149.829 103.708C148.669 102.421 148.47 100.533 149.336 99.0315L154 90.9458C154.866 89.4447 156.6 88.6719 158.295 89.0315L167.426 90.9688Z" fill="#FDDD99"/>
<path d="M44.9681 49.8727L43.3928 62.6614L55.7778 59.7457L45.7664 67.7665L56.4504 74.5687L43.8675 73.1232L46.592 85.6587L38.8086 75.5936L31.9776 86.5193L33.5529 73.7306L21.168 76.6463L31.1793 68.6255L20.4953 61.8233L33.0782 63.2688L30.3537 50.7333L38.1372 60.7984L44.9681 49.8727Z" fill="#FBBC04"/>
</g>
<defs>
<linearGradient id="paint0_linear_854_27638" x1="100" y1="0" x2="100" y2="200" gradientUnits="userSpaceOnUse">
<stop stop-color="#ADD1FC"/>
<stop offset="1" stop-color="#61A2F2"/>
</linearGradient>
<linearGradient id="paint1_linear_854_27638" x1="100" y1="117.5" x2="100" y2="200" gradientUnits="userSpaceOnUse">
<stop stop-color="#D7E9FE"/>
<stop offset="1" stop-color="#C4DEFD"/>
</linearGradient>
<clipPath id="clip0_854_27638">
<rect width="200" height="200" rx="100" fill="white"/>
</clipPath>
</defs>
</svg>
