<svg width="358" height="345" viewBox="0 0 358 345" fill="none" xmlns="http://www.w3.org/2000/svg">
<path d="M272.855 32.2324L284.914 86.6464L331.192 56.8612L301.969 104.029L355.356 116.32L301.969 128.611L331.192 175.779L284.914 145.994L272.855 200.408L260.795 145.994L214.518 175.779L243.741 128.611L190.354 116.32L243.741 104.029L214.518 56.8612L260.795 86.6464L272.855 32.2324Z" fill="#FBBC04"/>
<rect x="58" y="116" width="229.535" height="147.901" rx="14.406" fill="#EFEFEF"/>
<circle cx="76.7279" cy="134.255" r="6.24258" fill="#EA4335"/>
<circle cx="94.015" cy="134.255" r="6.24258" fill="#F9AB00"/>
<circle cx="111.302" cy="134.255" r="6.24258" fill="#34A853"/>
<line x1="261.817" y1="276.265" x2="296.439" y2="310.888" stroke="#AFD2FC" stroke-width="10.0355"/>
<path d="M275.831 252.718C275.831 274.611 258.083 292.358 236.191 292.358C214.298 292.358 196.551 274.611 196.551 252.718C196.551 230.826 214.298 213.078 236.191 213.078C258.083 213.078 275.831 230.826 275.831 252.718Z" fill="url(#paint0_linear_2142_6775)"/>
<path fill-rule="evenodd" clip-rule="evenodd" d="M236.191 282.323C252.541 282.323 265.795 269.068 265.795 252.718C265.795 236.368 252.541 223.114 236.191 223.114C219.841 223.114 206.586 236.368 206.586 252.718C206.586 269.068 219.841 282.323 236.191 282.323ZM236.191 292.358C258.083 292.358 275.831 274.611 275.831 252.718C275.831 230.826 258.083 213.078 236.191 213.078C214.298 213.078 196.551 230.826 196.551 252.718C196.551 274.611 214.298 292.358 236.191 292.358Z" fill="url(#paint1_linear_2142_6775)"/>
<path fill-rule="evenodd" clip-rule="evenodd" d="M216.622 252.718C216.622 263.526 225.383 272.287 236.191 272.287V277.305C222.612 277.305 211.604 266.297 211.604 252.718H216.622Z" fill="white"/>
<path fill-rule="evenodd" clip-rule="evenodd" d="M304.432 332.5L263.286 291.354L277.479 277.162L318.624 318.308L304.432 332.5Z" fill="url(#paint2_linear_2142_6775)"/>
<path fill-rule="evenodd" clip-rule="evenodd" d="M174.292 72.5479C185.969 85.8822 187.442 98.6512 186.48 103.866C186.252 105.099 185.069 105.913 183.836 105.686C182.604 105.458 181.789 104.275 182.017 103.043C182.69 99.3964 181.787 87.995 170.878 75.5378C169.794 74.3003 168.685 73.187 167.563 72.1924C168.942 78.9407 167.132 85.5743 163.466 89.9261C158.83 95.4282 150.947 96.0926 144.818 93.497C138.536 90.8366 133.551 84.5592 134.84 75.709C136.113 66.965 142.332 61.6627 150.182 60.979C151.938 60.8261 153.759 60.9035 155.613 61.2139C151.873 58.1303 146.587 55.4667 139.319 53.755C128.62 51.235 118.998 53.547 111.25 57.5278C103.468 61.5258 97.6785 67.1594 94.7813 71.0391C94.0315 72.0432 92.6096 72.2493 91.6055 71.4995C90.6014 70.7496 90.3953 69.3278 91.1451 68.3237C94.424 63.9329 100.734 57.8283 109.176 53.4911C117.652 49.1367 128.381 46.5164 140.359 49.3378C152.683 52.2403 160.371 57.8759 164.436 64.4035C167.856 66.3192 171.209 69.0281 174.292 72.5479ZM161.166 67.8034C157.419 65.9232 153.753 65.2233 150.576 65.5001C144.764 66.0062 140.292 69.7605 139.331 76.363C138.385 82.8594 141.9 87.3328 146.588 89.3181C151.429 91.3682 156.986 90.5733 159.995 87.002C163.262 83.1246 164.759 76.4526 162.173 69.9443C161.89 69.2311 161.555 68.5158 161.166 67.8034Z" fill="#E1E1E1"/>
<path d="M248.208 29.5235C249.223 31.5074 248.845 33.9192 247.272 35.4975L235.056 47.7528C233.483 49.3311 231.072 49.7169 229.085 48.7084L213.655 40.8778C211.668 39.8693 210.556 37.696 210.901 35.4944L213.58 18.3995C213.925 16.198 215.648 14.4689 217.849 14.1168L234.935 11.3821C237.135 11.03 239.312 12.1347 240.327 14.1186L248.208 29.5235Z" fill="#C2C2C2"/>
<path d="M122.538 169.56V176.84H99.8577V186.528H119.57V193.808H99.8577V204.728H122.538V212.008H91.3457V169.56H122.538ZM137.213 186.416C138.893 183.56 142.253 181.544 145.389 181.544V188.936C139.957 188.936 137.213 194.088 137.213 197.504V212.008H128.813V181.488H137.213V186.416ZM159.307 186.416C160.987 183.56 164.347 181.544 167.483 181.544V188.936C162.051 188.936 159.307 194.088 159.307 197.504V212.008H150.907V181.488H159.307V186.416ZM184.926 205.344C188.902 205.344 191.366 202.096 191.366 196.888C191.366 191.68 188.902 188.376 184.926 188.376C180.95 188.376 178.486 191.68 178.486 196.888C178.486 202.096 180.95 205.344 184.926 205.344ZM169.974 196.888C169.974 187.872 176.134 181.544 184.926 181.544C193.718 181.544 199.878 187.872 199.878 196.888C199.878 205.848 193.718 212.176 184.926 212.176C176.134 212.176 169.974 205.848 169.974 196.888ZM213.448 186.416C215.128 183.56 218.488 181.544 221.624 181.544V188.936C216.192 188.936 213.448 194.088 213.448 197.504V212.008H205.048V181.488H213.448V186.416ZM252.76 166.2L251.472 198.456H243.184L241.672 166.2H252.76ZM242.904 208.704C242.904 206.128 244.752 204.28 247.328 204.28C249.904 204.28 251.752 206.128 251.752 208.704C251.752 211.28 249.904 213.128 247.328 213.128C244.752 213.128 242.904 211.28 242.904 208.704Z" fill="#EA4335"/>
<defs>
<linearGradient id="paint0_linear_2142_6775" x1="236.191" y1="213.078" x2="236.191" y2="292.358" gradientUnits="userSpaceOnUse">
<stop stop-color="#D7E9FD"/>
<stop offset="1" stop-color="#C2C2C2"/>
</linearGradient>
<linearGradient id="paint1_linear_2142_6775" x1="196.309" y1="214.576" x2="284.118" y2="224.188" gradientUnits="userSpaceOnUse">
<stop stop-color="#368FF7"/>
<stop offset="1" stop-color="#205491"/>
</linearGradient>
<linearGradient id="paint2_linear_2142_6775" x1="277.085" y1="277.305" x2="305.686" y2="332.5" gradientUnits="userSpaceOnUse">
<stop stop-color="#368FF7"/>
<stop offset="1" stop-color="#205491"/>
</linearGradient>
</defs>
</svg>
