<svg width="1200" height="630" viewBox="0 0 1200 630" fill="none" xmlns="http://www.w3.org/2000/svg">
<rect width="1200" height="630" fill="#F9F9F9"/>
<path d="M757 228.531C779.435 180.009 854.241 95.1128 933.802 143.699C971.976 167.01 954.898 195.755 933.802 198.647C903.968 202.737 893.384 181.295 891.611 162.015C888.597 129.239 930.789 55.011 1069.42 80.0745" stroke="url(#paint0_linear_2223_6064)" stroke-width="14.282" stroke-linecap="round" stroke-linejoin="round"/>
<path d="M558.859 460.468L878.339 418.026" stroke="url(#paint1_linear_2223_6064)" stroke-width="14.282" stroke-linecap="round" stroke-linejoin="round"/>
<path d="M585.949 484.131L856.171 447.091" stroke="url(#paint2_linear_2223_6064)" stroke-width="14.282" stroke-linecap="round" stroke-linejoin="round"/>
<path d="M357.792 417.185L325 427.56" stroke="url(#paint3_linear_2223_6064)" stroke-width="14.282" stroke-linecap="round" stroke-linejoin="round"/>
<path d="M369.027 436.793L342.851 455.23" stroke="url(#paint4_linear_2223_6064)" stroke-width="14.282" stroke-linecap="round" stroke-linejoin="round"/>
<path d="M620.5 259.001C419.686 340.773 215.137 317.432 226.5 252.5C247.5 132.5 725.709 101.369 520 316.5" stroke="url(#paint5_linear_2223_6064)" stroke-width="14.282" stroke-linecap="round"/>
<path d="M412.894 347.6C426.894 347.6 437.594 357 437.594 369.9C437.594 380.7 430.394 388.9 419.994 391.5V403.2C426.694 402.9 433.294 402.3 439.594 401.5L440.594 411.6C421.994 415.2 401.994 415.2 387.094 415.1L385.394 403.8C391.594 403.8 398.694 403.8 406.094 403.7V391.6C395.494 389.1 388.094 380.8 388.094 369.9C388.094 357 398.794 347.6 412.894 347.6ZM401.794 369.9C401.794 376.7 406.494 380.5 412.894 380.5C419.194 380.5 423.894 376.7 423.894 369.9C423.894 363.1 419.194 359.4 412.894 359.4C406.494 359.4 401.794 363.1 401.794 369.9ZM443.994 432.7V342.4H457.994V377.3H469.394V388.9H457.994V432.7H443.994ZM472.796 392.7H554.496V403.9H520.296V432.8H506.296V403.9H472.796V392.7ZM480.496 365.8C480.496 353.4 493.996 345.4 513.396 345.4C532.796 345.4 546.296 353.4 546.296 365.8C546.296 378.2 532.796 386.2 513.396 386.2C493.996 386.2 480.496 378.2 480.496 365.8ZM494.896 365.8C494.896 371.9 501.896 375.1 513.396 375.1C524.796 375.1 531.896 371.9 531.896 365.8C531.896 359.7 524.796 356.5 513.396 356.5C501.896 356.5 494.896 359.7 494.896 365.8ZM569.099 345.4H631.499V353.5C631.499 360.6 631.499 368 629.999 376.8H640.599V387.7H559.399V376.8H615.999C616.399 374.5 616.699 372.3 616.999 370.2L567.999 372.1L566.499 361.6L617.599 360.6C617.699 359.1 617.699 357.7 617.699 356.2H569.099V345.4ZM567.899 402.7V392.2H632.099V416.8H581.899V421.2H635.099V431.8H568.099V406.8H618.199V402.7H567.899ZM647.701 350.9H682.001V386.6H661.401V401.6C669.201 401.5 676.701 401 685.101 399.7L686.201 411C674.801 412.9 665.201 413.2 654.301 413.2H647.901V375.6H668.501V362.1H647.701V350.9ZM689.801 428.5V343.9H702.801V376.2H709.901V342.4H723.201V432.7H709.901V387.3H702.801V428.5H689.801ZM764.904 347.3H779.904V353.7C779.904 366.4 789.704 380.6 811.204 384.1L805.204 395.8C789.204 392.7 778.104 384.3 772.404 373.2C766.504 384.2 755.504 392.8 739.504 395.8L733.604 384.1C754.904 380.6 764.904 366.1 764.904 353.7V347.3ZM732.004 421.9V410.5H813.704V421.9H732.004Z" fill="#17191C"/>
<path d="M342.317 240.4V247.7C342.317 268.3 329.117 281.6 306.817 281.6C284.317 281.6 268.417 265.6 268.417 242.9C268.417 220.2 284.317 204.3 306.817 204.3C330.817 204.3 339.517 222.5 339.517 222.5L326.817 229.6C326.817 229.6 321.017 217.5 306.717 217.5C292.517 217.5 283.617 227.3 283.617 242.9C283.617 258.6 292.517 268.4 306.717 268.4C316.917 268.4 326.817 264.3 327.117 252.4H307.717V240.4H342.317ZM380.376 267.6C394.476 267.6 403.276 258.1 403.276 242.9C403.276 227.7 394.476 218.2 380.376 218.2L368.376 218.3V267.5L380.376 267.6ZM353.176 280.8V205H380.676C402.876 205 418.476 220.6 418.476 242.9C418.476 265.2 402.876 280.8 380.676 280.8H353.176ZM437.313 257.1C442.613 266.9 449.013 268.8 453.213 268.8C462.313 268.8 466.813 264.8 466.813 259.3C466.813 246.1 428.413 252 428.413 225.5C428.413 212.4 439.713 204.2 454.813 204.2C463.313 204.2 475.613 209.4 480.713 222.7L467.413 227.6C463.913 218.8 458.113 217.1 454.813 217.1C447.913 217.1 443.513 220.9 443.513 225.5C443.513 238.6 481.913 234.7 481.913 259.3C481.913 272.5 470.513 281.7 453.213 281.7C441.913 281.7 431.513 274.9 425.013 264.1L437.313 257.1ZM526.638 281.6C504.638 281.6 489.238 265.6 489.238 242.9C489.238 220.1 504.638 204.1 526.638 204.2C537.038 204.2 546.338 208.6 553.038 215.5L543.338 226.2C539.838 221 533.338 217.4 526.538 217.4C512.938 217.3 504.438 227.1 504.438 242.9C504.438 258.6 512.938 268.4 526.538 268.4C534.538 268.4 539.738 264.2 542.638 260.2L553.038 270.3C546.338 277.2 538.238 281.8 526.638 281.6ZM648.137 205V280.8H632.937V248.4H599.337V280.8H584.137V205H599.337V235.4H632.937V205H648.137ZM685.764 268.9C692.864 268.9 697.264 263.1 697.264 253.8C697.264 244.5 692.864 238.6 685.764 238.6C678.664 238.6 674.264 244.5 674.264 253.8C674.264 263.1 678.664 268.9 685.764 268.9ZM659.064 253.8C659.064 237.7 670.064 226.4 685.764 226.4C701.464 226.4 712.464 237.7 712.464 253.8C712.464 269.8 701.464 281.1 685.764 281.1C670.064 281.1 659.064 269.8 659.064 253.8ZM759.395 253.2C759.395 243.9 755.595 238.8 747.495 238.8C741.595 238.9 736.095 243.9 736.395 253.2V280.8H721.195V226.3H736.395V235.3C738.995 230.3 745.195 226.7 751.095 226.7C758.395 226.7 774.595 230.6 774.595 253.2V280.8H759.395V253.2ZM810.434 268.7C818.734 268.7 823.834 261.7 823.834 253.4C823.834 245.3 818.734 238.3 810.434 238.3C803.134 238.3 798.534 244.1 798.534 253.4C798.534 262.8 803.134 268.7 810.434 268.7ZM783.334 253.5C783.334 237.5 793.934 226.3 809.034 226.3C812.534 226.3 819.334 227.4 823.834 232.9V226.3H839.034V276.7C839.034 291.7 828.634 303.3 811.034 303.3C801.534 303.3 791.934 299.9 786.934 291.4L798.434 283C802.534 288 805.134 290.3 811.034 290.3C819.734 290.3 823.834 285.1 823.834 279.2V274C818.634 280 812.734 280.8 809.034 280.8C793.934 280.8 783.334 269.5 783.334 253.5ZM852.038 227.1H867.238V280.8H852.038V227.1ZM851.738 210.8C851.738 206.2 855.038 202.9 859.638 202.9C864.238 202.9 867.538 206.2 867.538 210.8C867.538 215.4 864.238 218.7 859.638 218.7C855.038 218.7 851.738 215.4 851.738 210.8ZM896.297 205V245L912.497 226.3H933.097L911.397 250.9L931.297 280.8H913.097L900.397 261.8L896.297 266.7V280.8H881.097V205H896.297Z" fill="#17191C"/>
<path d="M162.122 166.889L142 129.585L183.641 121.499" stroke="url(#paint6_linear_2223_6064)" stroke-width="14.282" stroke-linecap="round" stroke-linejoin="round"/>
<path d="M144.015 130.655L215.253 165.179" stroke="url(#paint7_linear_2223_6064)" stroke-width="14.282" stroke-linecap="round" stroke-linejoin="round"/>
<defs>
<linearGradient id="paint0_linear_2223_6064" x1="913.209" y1="75" x2="913.209" y2="228.531" gradientUnits="userSpaceOnUse">
<stop stop-color="#C2E5CB"/>
<stop offset="1" stop-color="#5DB975"/>
</linearGradient>
<linearGradient id="paint1_linear_2223_6064" x1="764.803" y1="429.189" x2="572.993" y2="458.225" gradientUnits="userSpaceOnUse">
<stop stop-color="#FDE6B2"/>
<stop offset="1" stop-color="#FDDD99"/>
</linearGradient>
<linearGradient id="paint2_linear_2223_6064" x1="598.05" y1="479.391" x2="691.692" y2="474.056" gradientUnits="userSpaceOnUse">
<stop stop-color="#FDE6B2"/>
<stop offset="1" stop-color="#FDDD99"/>
</linearGradient>
<linearGradient id="paint3_linear_2223_6064" x1="356.453" y1="424.964" x2="326.339" y2="419.78" gradientUnits="userSpaceOnUse">
<stop stop-color="#F9C7C2"/>
<stop offset="1" stop-color="#F28E86"/>
</linearGradient>
<linearGradient id="paint4_linear_2223_6064" x1="367.297" y1="446.844" x2="338.388" y2="459.693" gradientUnits="userSpaceOnUse">
<stop stop-color="#F9C7C2"/>
<stop offset="1" stop-color="#F28E86"/>
</linearGradient>
<linearGradient id="paint5_linear_2223_6064" x1="306.117" y1="156.416" x2="426.621" y2="377.786" gradientUnits="userSpaceOnUse">
<stop stop-color="#AFD2FC"/>
<stop offset="1" stop-color="#4792EE"/>
</linearGradient>
<linearGradient id="paint6_linear_2223_6064" x1="154.157" y1="147.106" x2="169.911" y2="138.633" gradientUnits="userSpaceOnUse">
<stop stop-color="#FDE6B2"/>
<stop offset="1" stop-color="#FDDD99"/>
</linearGradient>
<linearGradient id="paint7_linear_2223_6064" x1="164.767" y1="162.229" x2="186.425" y2="150.573" gradientUnits="userSpaceOnUse">
<stop stop-color="#FDE6B2"/>
<stop offset="1" stop-color="#FDDD99"/>
</linearGradient>
</defs>
</svg>
