<svg width="358" height="344" viewBox="0 0 358 344" fill="none" xmlns="http://www.w3.org/2000/svg">
<path d="M272.855 31.7324L284.914 86.1464L331.192 56.3612L301.969 103.529L355.356 115.82L301.969 128.111L331.192 175.279L284.914 145.494L272.855 199.908L260.795 145.494L214.518 175.279L243.741 128.111L190.354 115.82L243.741 103.529L214.518 56.3612L260.795 86.1464L272.855 31.7324Z" fill="#FBBC04"/>
<rect x="58" y="115.988" width="229.535" height="147.901" rx="14.406" fill="#EFEFEF"/>
<circle cx="76.7279" cy="133.755" r="6.24258" fill="#EA4335"/>
<circle cx="94.015" cy="133.755" r="6.24258" fill="#F9AB00"/>
<circle cx="111.302" cy="133.755" r="6.24258" fill="#34A853"/>
<path d="M230.576 220.803V209.99H203.457V200.893L229.546 162.102H241.733V199.519H249.114V209.99H241.733V220.803H230.576ZM230.576 178.837H229.89L215.901 199.519H230.576V178.837Z" fill="#121212"/>
<path d="M230.576 220.803V209.99H203.457V200.893L229.546 162.102H241.733V199.519H249.114V209.99H241.733V220.803H230.576ZM230.576 178.837H229.89L215.901 199.519H230.576V178.837Z" fill="#368FF7"/>
<path d="M172.466 222.176C168.69 222.176 165.286 221.404 162.253 219.859C159.221 218.257 156.618 216.083 154.444 213.337C152.327 210.59 150.696 207.358 149.552 203.639C148.408 199.863 147.835 195.801 147.835 191.452C147.835 187.104 148.408 183.071 149.552 179.352C150.696 175.576 152.327 172.314 154.444 169.568C156.618 166.822 159.221 164.676 162.253 163.132C165.286 161.53 168.69 160.729 172.466 160.729C176.242 160.729 179.646 161.53 182.679 163.132C185.711 164.676 188.286 166.822 190.403 169.568C192.577 172.314 194.236 175.576 195.38 179.352C196.525 183.071 197.097 187.104 197.097 191.452C197.097 195.801 196.525 199.863 195.38 203.639C194.236 207.358 192.577 210.59 190.403 213.337C188.286 216.083 185.711 218.257 182.679 219.859C179.646 221.404 176.242 222.176 172.466 222.176ZM172.466 211.534C174.526 211.534 176.385 211.048 178.044 210.076C179.704 209.046 181.105 207.644 182.25 205.87C183.451 204.039 184.338 201.894 184.91 199.434C185.539 196.974 185.854 194.313 185.854 191.452C185.854 188.534 185.539 185.874 184.91 183.471C184.338 181.011 183.451 178.894 182.25 177.12C181.105 175.289 179.704 173.888 178.044 172.915C176.385 171.885 174.526 171.37 172.466 171.37C170.349 171.37 168.461 171.885 166.802 172.915C165.143 173.888 163.741 175.289 162.597 177.12C161.452 178.894 160.566 181.011 159.936 183.471C159.364 185.874 159.078 188.534 159.078 191.452C159.078 194.313 159.364 196.974 159.936 199.434C160.566 201.894 161.452 204.039 162.597 205.87C163.741 207.644 165.143 209.046 166.802 210.076C168.461 211.048 170.349 211.534 172.466 211.534Z" fill="#121212"/>
<path d="M172.466 222.176C168.69 222.176 165.286 221.404 162.253 219.859C159.221 218.257 156.618 216.083 154.444 213.337C152.327 210.59 150.696 207.358 149.552 203.639C148.408 199.863 147.835 195.801 147.835 191.452C147.835 187.104 148.408 183.071 149.552 179.352C150.696 175.576 152.327 172.314 154.444 169.568C156.618 166.822 159.221 164.676 162.253 163.132C165.286 161.53 168.69 160.729 172.466 160.729C176.242 160.729 179.646 161.53 182.679 163.132C185.711 164.676 188.286 166.822 190.403 169.568C192.577 172.314 194.236 175.576 195.38 179.352C196.525 183.071 197.097 187.104 197.097 191.452C197.097 195.801 196.525 199.863 195.38 203.639C194.236 207.358 192.577 210.59 190.403 213.337C188.286 216.083 185.711 218.257 182.679 219.859C179.646 221.404 176.242 222.176 172.466 222.176ZM172.466 211.534C174.526 211.534 176.385 211.048 178.044 210.076C179.704 209.046 181.105 207.644 182.25 205.87C183.451 204.039 184.338 201.894 184.91 199.434C185.539 196.974 185.854 194.313 185.854 191.452C185.854 188.534 185.539 185.874 184.91 183.471C184.338 181.011 183.451 178.894 182.25 177.12C181.105 175.289 179.704 173.888 178.044 172.915C176.385 171.885 174.526 171.37 172.466 171.37C170.349 171.37 168.461 171.885 166.802 172.915C165.143 173.888 163.741 175.289 162.597 177.12C161.452 178.894 160.566 181.011 159.936 183.471C159.364 185.874 159.078 188.534 159.078 191.452C159.078 194.313 159.364 196.974 159.936 199.434C160.566 201.894 161.452 204.039 162.597 205.87C163.741 207.644 165.143 209.046 166.802 210.076C168.461 211.048 170.349 211.534 172.466 211.534Z" fill="#368FF7"/>
<path d="M122.586 220.803V209.99H95.4666V200.893L121.556 162.102H133.743V199.519H141.123V209.99H133.743V220.803H122.586ZM122.586 178.837H121.899L107.911 199.519H122.586V178.837Z" fill="#121212"/>
<path d="M122.586 220.803V209.99H95.4666V200.893L121.556 162.102H133.743V199.519H141.123V209.99H133.743V220.803H122.586ZM122.586 178.837H121.899L107.911 199.519H122.586V178.837Z" fill="#368FF7"/>
<line x1="261.817" y1="275.765" x2="296.439" y2="310.388" stroke="#AFD2FC" stroke-width="10.0355"/>
<path d="M275.831 252.218C275.831 274.111 258.083 291.858 236.191 291.858C214.298 291.858 196.551 274.111 196.551 252.218C196.551 230.326 214.298 212.578 236.191 212.578C258.083 212.578 275.831 230.326 275.831 252.218Z" fill="url(#paint0_linear_1377_5936)"/>
<path fill-rule="evenodd" clip-rule="evenodd" d="M236.191 281.823C252.541 281.823 265.795 268.568 265.795 252.218C265.795 235.868 252.541 222.614 236.191 222.614C219.841 222.614 206.586 235.868 206.586 252.218C206.586 268.568 219.841 281.823 236.191 281.823ZM236.191 291.858C258.083 291.858 275.831 274.111 275.831 252.218C275.831 230.326 258.083 212.578 236.191 212.578C214.298 212.578 196.551 230.326 196.551 252.218C196.551 274.111 214.298 291.858 236.191 291.858Z" fill="url(#paint1_linear_1377_5936)"/>
<path fill-rule="evenodd" clip-rule="evenodd" d="M216.622 252.218C216.622 263.026 225.383 271.787 236.191 271.787V276.805C222.612 276.805 211.604 265.797 211.604 252.218H216.622Z" fill="white"/>
<path fill-rule="evenodd" clip-rule="evenodd" d="M304.432 332L263.286 290.854L277.479 276.662L318.624 317.808L304.432 332Z" fill="url(#paint2_linear_1377_5936)"/>
<path fill-rule="evenodd" clip-rule="evenodd" d="M174.291 72.0479C185.969 85.3822 187.442 98.1512 186.48 103.366C186.252 104.599 185.069 105.413 183.836 105.186C182.604 104.958 181.789 103.775 182.017 102.543C182.69 98.8964 181.787 87.495 170.877 75.0378C169.794 73.8003 168.685 72.687 167.563 71.6924C168.942 78.4407 167.132 85.0743 163.465 89.4261C158.83 94.9282 150.947 95.5926 144.818 92.997C138.536 90.3366 133.551 84.0592 134.84 75.209C136.113 66.465 142.332 61.1627 150.182 60.479C151.938 60.3261 153.759 60.4035 155.612 60.7139C151.873 57.6303 146.586 54.9667 139.319 53.255C128.62 50.735 118.998 53.047 111.25 57.0278C103.468 61.0258 97.6784 66.6594 94.7812 70.5391C94.0313 71.5432 92.6095 71.7493 91.6054 70.9995C90.6013 70.2496 90.3952 68.8278 91.145 67.8237C94.4239 63.4329 100.734 57.3283 109.176 52.9911C117.652 48.6367 128.381 46.0164 140.359 48.8378C152.683 51.7403 160.371 57.3759 164.435 63.9035C167.856 65.8192 171.209 68.5281 174.291 72.0479ZM161.166 67.3034C157.418 65.4232 153.753 64.7233 150.576 65.0001C144.764 65.5062 140.292 69.2605 139.331 75.863C138.385 82.3594 141.9 86.8328 146.588 88.8181C151.429 90.8682 156.986 90.0733 159.995 86.502C163.262 82.6246 164.759 75.9526 162.173 69.4443C161.89 68.7311 161.555 68.0158 161.166 67.3034Z" fill="#E1E1E1"/>
<path d="M248.208 29.0235C249.223 31.0074 248.845 33.4192 247.272 34.9975L235.056 47.2528C233.483 48.8311 231.072 49.2169 229.085 48.2084L213.655 40.3778C211.668 39.3693 210.556 37.196 210.901 34.9944L213.58 17.8995C213.925 15.698 215.648 13.9689 217.849 13.6168L234.935 10.8821C237.135 10.53 239.312 11.6347 240.327 13.6186L248.208 29.0235Z" fill="#C2C2C2"/>
<defs>
<linearGradient id="paint0_linear_1377_5936" x1="236.191" y1="212.578" x2="236.191" y2="291.858" gradientUnits="userSpaceOnUse">
<stop stop-color="#D7E9FD"/>
<stop offset="1" stop-color="#C2C2C2"/>
</linearGradient>
<linearGradient id="paint1_linear_1377_5936" x1="196.309" y1="214.076" x2="284.118" y2="223.688" gradientUnits="userSpaceOnUse">
<stop stop-color="#368FF7"/>
<stop offset="1" stop-color="#205491"/>
</linearGradient>
<linearGradient id="paint2_linear_1377_5936" x1="277.085" y1="276.805" x2="305.686" y2="332" gradientUnits="userSpaceOnUse">
<stop stop-color="#368FF7"/>
<stop offset="1" stop-color="#205491"/>
</linearGradient>
</defs>
</svg>
