<svg xmlns="http://www.w3.org/2000/svg" width="20" height="20" viewBox="0 0 20 20" fill="none">
<g clip-path="url(#clip0_762_24736)">
<path d="M11.6663 10.8332C11.6663 11.7536 10.9201 12.4998 9.99967 12.4998C9.0792 12.4998 8.33301 11.7536 8.33301 10.8332C8.33301 9.9127 9.0792 9.1665 9.99967 9.1665C10.9201 9.1665 11.6663 9.9127 11.6663 10.8332Z" stroke="#121212" stroke-width="1.16667"/>
<path d="M7.08333 5.00016C7.08333 5.92064 6.33714 6.66683 5.41667 6.66683C4.49619 6.66683 3.75 5.92064 3.75 5.00016C3.75 4.07969 4.49619 3.3335 5.41667 3.3335C6.33714 3.3335 7.08333 4.07969 7.08333 5.00016Z" stroke="black" stroke-width="1.16667"/>
<path d="M16.2503 5.00016C16.2503 5.92064 15.5041 6.66683 14.5837 6.66683C13.6632 6.66683 12.917 5.92064 12.917 5.00016C12.917 4.07969 13.6632 3.3335 14.5837 3.3335C15.5041 3.3335 16.2503 4.07969 16.2503 5.00016Z" stroke="black" stroke-width="1.16667"/>
<path d="M14.167 17.9167L12.2728 14.491L7.67471 14.491L5.8337 17.9167" stroke="black" stroke-width="1.16667" stroke-linejoin="bevel"/>
<path d="M17.8474 10.4167L16.7976 8.65774L12.8474 8.65777" stroke="black" stroke-width="1.16667" stroke-linejoin="bevel"/>
<path d="M2.16627 10.4167L3.21612 8.65774L7.16624 8.65777" stroke="black" stroke-width="1.16667" stroke-linejoin="bevel"/>
</g>
<defs>
<clipPath id="clip0_762_24736">
<rect width="20" height="20" fill="white"/>
</clipPath>
</defs>
</svg>